<svg version="1.1" viewBox="0.0 0.0 1080.0 1080.0" fill="none" stroke="none" stroke-linecap="square" stroke-miterlimit="10" xmlns:xlink="http://www.w3.org/1999/xlink" xmlns="http://www.w3.org/2000/svg"><clipPath id="p.0"><path d="m0 0l1080.0 0l0 1080.0l-1080.0 0l0 -1080.0z" clip-rule="nonzero"/></clipPath><g clip-path="url(#p.0)"><path fill="#000000" fill-opacity="0.0" d="m0 0l1080.0 0l0 1080.0l-1080.0 0z" fill-rule="evenodd"/><path fill="#f3f3f3" d="m-1332.0 -30.459318l1080.0 0l0 1080.0l-1080.0 0z" fill-rule="evenodd"/><path fill="#ffffff" d="m-1206.0762 94.973755l690.4435 0l138.09201 138.092l0 690.9159l0 0l-690.4435 0l-138.09204 -138.09198l0 -690.9159z" fill-rule="evenodd"/><path fill="#000000" d="m-1276.126 25.414698l414.99213 0l-69.95935 69.95937l-275.27264 0l0 275.27258l-69.76013 69.76019z" fill-rule="evenodd"/><path fill="#000000" d="m-307.87402 993.6667l-414.99213 0l69.95935 -69.95941l275.2726 0l0 -275.27258l69.76016 -69.76013z" fill-rule="evenodd"/><path fill="#000000" fill-opacity="0.0" d="m-1155.4869 11.21521l414.9922 0l0 585.19684l-414.9922 0z" fill-rule="evenodd"/><path fill="#000000" d="m-1129.4244 532.2152l0 -59.203125l26.875 -2.21875q6.203125 -0.484375 6.203125 -6.640625l0 -240.09375l-30.40625 -1.59375l0 -61.5625l108.984436 0l147.34375 251.1875l-1.078125 0.859375l-7.25 -188.84375l-35.203125 -1.59375l0 -61.609375l146.78125 0l0 59.171875l-26.828125 2.25q-5.171875 0.4375 -5.171875 8.234375l0 301.65625l-75.359375 0l-150.56256 -254.95312l1.0625 -0.84375l7.265686 192.57812l34.671875 1.609375l0 61.609375l-147.32819 0z" fill-rule="nonzero"/><path fill="#000000" fill-opacity="0.0" d="m-833.7153 319.86484l414.99213 0l0 585.1968l-414.99213 0z" fill-rule="evenodd"/><path fill="#000000" d="m-558.5903 770.13043l0 -83.9375l-134.26562 0l0 91.5l30.921875 1.609375l0 61.5625l-145.71875 0l0 -59.140625l25.125 -2.28125q7.953125 -0.8125 7.953125 -6.640625l0 -240.09375l-30.40625 -1.59375l0 -61.56247l145.71875 0l0 59.109344l-25.03125 2.296875q-5.71875 0.71875 -7.140625 2.03125q-1.421875 1.3125 -1.421875 7.28125l0 74.34375l134.26562 0l0 -81.90625l-30.390625 -1.59375l0 -61.56247l145.71875 0l0 59.109344l-25.109375 2.3125q-7.953125 0.8125 -7.953125 8.765625l0 237.95312l30.390625 1.609375l0 61.5625l-145.71875 0l0 -59.140625l25.015625 -2.265625q5.1875 -0.6875 6.609375 -2.015625q1.4375 -1.328125 1.4375 -7.3125z" fill-rule="nonzero"/><path fill="#f3f3f3" d="m0 0l1080.0 0l0 1080.0l-1080.0 0z" fill-rule="evenodd"/><path fill="#ffffff" d="m125.92388 125.43307l690.4434 0l138.09198 138.09201l0 690.91583l0 0l-690.44336 0l-138.09201 -138.09198l0 -690.9159z" fill-rule="evenodd"/><path fill="#000000" d="m55.874016 55.874016l414.99213 0l-69.95938 69.95937l-275.27258 0l0 275.27258l-69.76018 69.76019z" fill-rule="evenodd"/><path fill="#000000" d="m1024.126 1024.126l-414.99213 0l69.95935 -69.95935l275.27258 0l0 -275.27258l69.76019 -69.76019z" fill-rule="evenodd"/><path fill="#000000" fill-opacity="0.0" d="m160.51312 25.674528l414.99213 0l0 585.1969l-414.99213 0z" fill-rule="evenodd"/><path fill="#000000" d="m186.57562 546.6745l0 -59.203094l26.875 -2.21875q6.203125 -0.484375 6.203125 -6.640625l0 -240.09375l-30.40625 -1.59375l0 -61.5625l108.984375 0l147.34375 251.1875l-1.078125 0.859375l-7.25 -188.84375l-35.203125 -1.59375l0 -61.609375l146.78125 0l0 59.171875l-26.828125 2.25q-5.171875 0.4375 -5.171875 8.234375l0 301.65622l-75.359375 0l-150.5625 -254.9531l1.0625 -0.84375l7.265625 192.57812l34.671875 1.609375l0 61.609344l-147.32812 0z" fill-rule="nonzero"/><path fill="#000000" fill-opacity="0.0" d="m516.96454 371.66403l414.99213 0l0 585.1969l-414.99213 0z" fill-rule="evenodd"/><path fill="#000000" d="m792.08954 821.9297l0 -83.9375l-134.26562 0l0 91.5l30.921875 1.609375l0 61.5625l-145.71875 0l0 -59.140625l25.125 -2.28125q7.953125 -0.8125 7.953125 -6.640625l0 -240.09375l-30.40625 -1.59375l0 -61.5625l145.71875 0l0 59.109375l-25.03125 2.296875q-5.71875 0.71875 -7.140625 2.03125q-1.421875 1.3125 -1.421875 7.28125l0 74.34375l134.26562 0l0 -81.90625l-30.390625 -1.59375l0 -61.5625l145.71875 0l0 59.109375l-25.109375 2.3125q-7.953125 0.8125 -7.953125 8.765625l0 237.95312l30.390625 1.609375l0 61.5625l-145.71875 0l0 -59.140625l25.015625 -2.265625q5.1875 -0.6875 6.609375 -2.015625q1.4375 -1.328125 1.4375 -7.3125z" fill-rule="nonzero"/><path fill="#000000" fill-opacity="0.0" d="m421.19946 373.01703l98.42517 0l0 125.98425l-98.42517 0z" fill-rule="evenodd"/><path fill="#ffffff" d="m461.6526 485.7795l21.0 0q9.140625 -5.78125 9.140625 -17.0625q0 -11.46875 -13.328125 -11.46875q-5.515625 0 -8.71875 1.046875q-3.1875 1.03125 -3.4375 1.578125q-0.25 0.53125 -0.25 2.875l0 16.546875l-24.84375 -1.703125l0 -34.375q20.875 -10.453125 40.078125 -10.453125q19.203125 0 29.140625 9.125q9.953125 9.125 9.953125 23.65625q0 10.5 -5.046875 19.078125q-5.046875 8.5625 -8.03125 10.453125q14.9375 4.734375 14.9375 27.390656q0 18.390625 -11.5 29.78125q-11.484375 11.390625 -33.59375 11.390625q-10.65625 0 -21.234375 -2.90625q-10.5625 -2.90625 -18.890625 -8.109375l8.53125 -23.140625q17.046875 9.5 30.84375 9.5q17.453125 0 17.453125 -15.203125q0 -7.828125 -5.171875 -11.515625q-5.171875 -3.6875305 -19.0 -3.6875305l-10.296875 0l2.265625 -22.796875z" fill-rule="nonzero"/><path fill="#ffffff" d="m498.34512 472.5118l29.322845 0l0 114.456696l-29.322845 0z" fill-rule="evenodd"/></g></svg>